<svg viewBox="0 0 48 48" xmlns="http://www.w3.org/2000/svg" fill="none">
  <!-- Llanta: anillo exterior -->
  <circle cx="24" cy="24" r="19" stroke="#FAFAFA" stroke-width="3"/>
  <!-- Dibujo de piso (ticks radiales) -->
  <g stroke="#FAFAFA" stroke-width="2" stroke-linecap="round">
    <line x1="43.9" y1="24" x2="46.5" y2="24"/>
    <line x1="38.07" y1="38.07" x2="39.91" y2="39.91"/>
    <line x1="24" y1="43.9" x2="24" y2="46.5"/>
    <line x1="9.93" y1="38.07" x2="8.09" y2="39.91"/>
    <line x1="4.1" y1="24" x2="1.5" y2="24"/>
    <line x1="9.93" y1="9.93" x2="8.09" y2="8.09"/>
    <line x1="24" y1="4.1" x2="24" y2="1.5"/>
    <line x1="38.07" y1="9.93" x2="39.91" y2="8.09"/>
  </g>
  <!-- Rin interior -->
  <circle cx="24" cy="24" r="11" stroke="#FAFAFA" stroke-width="2.5"/>
  <!-- Rayos -->
  <g stroke="#FAFAFA" stroke-width="2" stroke-linecap="round">
    <line x1="24" y1="19" x2="24" y2="13.6"/>
    <line x1="28.76" y1="22.46" x2="33.89" y2="20.79"/>
    <line x1="26.94" y1="28.05" x2="30.11" y2="32.41"/>
    <line x1="21.06" y1="28.05" x2="17.89" y2="32.41"/>
    <line x1="19.24" y1="22.46" x2="14.11" y2="20.79"/>
  </g>
  <!-- Centro -->
  <circle cx="24" cy="24" r="3.2" fill="#FAFAFA"/>
</svg>
